<?xml version="1.0" encoding="UTF-8"?>
<svg width="1200" height="800" viewBox="0 0 1200 800" xmlns="http://www.w3.org/2000/svg">
  <!-- Background -->
  <rect width="1200" height="800" fill="#f8f9fa"/>
  
  <!-- Header -->
  <rect x="0" y="0" width="1200" height="60" fill="#1976d2"/>
  <text x="40" y="38" font-family="Arial, sans-serif" font-size="24" font-weight="bold" fill="white">Cross-Element Set Search</text>
  
  <!-- Search Section -->
  <rect x="40" y="80" width="1120" height="200" rx="8" fill="white" stroke="#e0e0e0"/>
  
  <text x="60" y="120" font-family="Arial, sans-serif" font-size="20" font-weight="bold" fill="#333">Search Across All ISBD Element Sets</text>
  
  <!-- Search Input -->
  <rect x="60" y="140" width="600" height="40" rx="4" fill="white" stroke="#ccc"/>
  <circle cx="80" cy="160" r="8" fill="none" stroke="#999" stroke-width="2"/>
  <line x1="86" y1="166" x2="92" y2="172" stroke="#999" stroke-width="2"/>
  <text x="105" y="165" font-family="Arial, sans-serif" font-size="16" fill="#333">title proper</text>
  <line x1="160" y1="155" x2="160" y2="165" stroke="#333" stroke-width="1" opacity="0.5"/>
  
  <rect x="680" y="140" width="100" height="40" rx="4" fill="#1976d2"/>
  <text x="710" y="165" font-family="Arial, sans-serif" font-size="16" fill="white">Search</text>
  
  <!-- Filter Options -->
  <text x="60" y="210" font-family="Arial, sans-serif" font-size="14" font-weight="bold" fill="#666">Filter by Element Set:</text>
  
  <rect x="60" y="220" width="20" height="20" rx="2" fill="#1976d2"/>
  <text x="88" y="235" font-family="Arial, sans-serif" font-size="14" fill="#333">All Element Sets</text>
  
  <rect x="220" y="220" width="20" height="20" rx="2" fill="white" stroke="#ccc"/>
  <text x="248" y="235" font-family="Arial, sans-serif" font-size="14" fill="#333">ISBD Elements (185)</text>
  
  <rect x="420" y="220" width="20" height="20" rx="2" fill="white" stroke="#ccc"/>
  <text x="448" y="235" font-family="Arial, sans-serif" font-size="14" fill="#333">ISBD Unconstrained (185)</text>
  
  <!-- Results Summary -->
  <rect x="40" y="300" width="1120" height="60" fill="#e3f2fd" rx="4"/>
  <text x="60" y="335" font-family="Arial, sans-serif" font-size="16" fill="#333">Found 4 results for "title proper" across 2 element sets</text>
  
  <!-- Results -->
  <!-- Result 1 - ISBD Elements -->
  <rect x="40" y="380" width="1120" height="150" rx="8" fill="white" stroke="#e0e0e0"/>
  <rect x="60" y="400" width="120" height="30" rx="15" fill="#e3f2fd"/>
  <text x="85" y="420" font-family="Arial, sans-serif" font-size="12" fill="#1976d2">ISBD Elements</text>
  
  <text x="200" y="420" font-family="Arial, sans-serif" font-size="18" font-weight="bold" fill="#1976d2">has title proper</text>
  <text x="900" y="420" font-family="Arial, sans-serif" font-size="14" fill="#666">P1001</text>
  
  <text x="60" y="450" font-family="Arial, sans-serif" font-size="14" fill="#333">Relates a resource to a title that is the chief title of a resource</text>
  
  <rect x="60" y="470" width="80" height="25" rx="4" fill="#f5f5f5"/>
  <text x="75" y="488" font-family="Arial, sans-serif" font-size="12" fill="#666">Statement</text>
  
  <rect x="150" y="470" width="100" height="25" rx="4" fill="#f5f5f5"/>
  <text x="165" y="488" font-family="Arial, sans-serif" font-size="12" fill="#666">Domain: Resource</text>
  
  <rect x="260" y="470" width="100" height="25" rx="4" fill="#f5f5f5"/>
  <text x="275" y="488" font-family="Arial, sans-serif" font-size="12" fill="#666">Range: Literal</text>
  
  <text x="60" y="515" font-family="Arial, sans-serif" font-size="13" fill="#666">Match: Label contains "title proper"</text>
  
  <!-- Result 2 - ISBD Elements -->
  <rect x="40" y="550" width="1120" height="150" rx="8" fill="white" stroke="#e0e0e0"/>
  <rect x="60" y="570" width="120" height="30" rx="15" fill="#e3f2fd"/>
  <text x="85" y="590" font-family="Arial, sans-serif" font-size="12" fill="#1976d2">ISBD Elements</text>
  
  <text x="200" y="590" font-family="Arial, sans-serif" font-size="18" font-weight="bold" fill="#1976d2">has parallel title proper</text>
  <text x="900" y="590" font-family="Arial, sans-serif" font-size="14" fill="#666">P1002</text>
  
  <text x="60" y="620" font-family="Arial, sans-serif" font-size="14" fill="#333">Relates a resource to a title proper in another language or script</text>
  
  <rect x="60" y="640" width="80" height="25" rx="4" fill="#f5f5f5"/>
  <text x="75" y="658" font-family="Arial, sans-serif" font-size="12" fill="#666">Statement</text>
  
  <rect x="150" y="640" width="100" height="25" rx="4" fill="#f5f5f5"/>
  <text x="165" y="658" font-family="Arial, sans-serif" font-size="12" fill="#666">Domain: Resource</text>
  
  <rect x="260" y="640" width="100" height="25" rx="4" fill="#f5f5f5"/>
  <text x="275" y="658" font-family="Arial, sans-serif" font-size="12" fill="#666">Range: Literal</text>
  
  <text x="60" y="685" font-family="Arial, sans-serif" font-size="13" fill="#666">Match: Label contains "title proper"</text>
  
  <!-- Result 3 - ISBD Unconstrained -->
  <rect x="40" y="720" width="1120" height="150" rx="8" fill="white" stroke="#e0e0e0"/>
  <rect x="60" y="740" width="150" height="30" rx="15" fill="#fce4ec"/>
  <text x="75" y="760" font-family="Arial, sans-serif" font-size="12" fill="#c2185b">ISBD Unconstrained</text>
  
  <text x="230" y="760" font-family="Arial, sans-serif" font-size="18" font-weight="bold" fill="#c2185b">has title proper</text>
  <text x="900" y="760" font-family="Arial, sans-serif" font-size="14" fill="#666">U1001</text>
  
  <text x="60" y="790" font-family="Arial, sans-serif" font-size="14" fill="#333">Relates a resource to a title that is the chief title of a resource (unconstrained)</text>
  
  <rect x="60" y="810" width="80" height="25" rx="4" fill="#f5f5f5"/>
  <text x="75" y="828" font-family="Arial, sans-serif" font-size="12" fill="#666">Element</text>
  
  <rect x="150" y="810" width="130" height="25" rx="4" fill="#f5f5f5"/>
  <text x="160" y="828" font-family="Arial, sans-serif" font-size="12" fill="#666">No domain/range</text>
  
  <text x="60" y="855" font-family="Arial, sans-serif" font-size="13" fill="#666">Match: Label contains "title proper"</text>
</svg>