<?xml version="1.0" encoding="UTF-8"?>
<svg width="1200" height="900" viewBox="0 0 1200 900" xmlns="http://www.w3.org/2000/svg">
  <!-- Background -->
  <rect width="1200" height="900" fill="#f8f9fa"/>
  
  <!-- Header -->
  <rect x="0" y="0" width="1200" height="60" fill="#1976d2"/>
  <text x="40" y="38" font-family="Arial, sans-serif" font-size="24" font-weight="bold" fill="white">ISBD Elements Browser</text>
  
  <!-- Element Set Switcher -->
  <rect x="900" y="12" width="280" height="36" rx="4" fill="white" fill-opacity="0.2" stroke="white"/>
  <text x="920" y="35" font-family="Arial, sans-serif" font-size="14" fill="white">Element Set: ISBD Elements ▼</text>
  
  <!-- Breadcrumb -->
  <rect x="0" y="60" width="1200" height="40" fill="white" stroke="#e0e0e0"/>
  <text x="40" y="85" font-family="Arial, sans-serif" font-size="14" fill="#1976d2">ISBD</text>
  <text x="80" y="85" font-family="Arial, sans-serif" font-size="14" fill="#666"> / </text>
  <text x="100" y="85" font-family="Arial, sans-serif" font-size="14" fill="#1976d2">Element Sets</text>
  <text x="190" y="85" font-family="Arial, sans-serif" font-size="14" fill="#666"> / </text>
  <text x="210" y="85" font-family="Arial, sans-serif" font-size="14" fill="#333">ISBD Elements</text>
  
  <!-- Sidebar -->
  <rect x="0" y="100" width="280" height="800" fill="white" stroke="#e0e0e0"/>
  
  <!-- Sidebar Categories -->
  <rect x="0" y="100" width="280" height="50" fill="#f5f5f5"/>
  <text x="20" y="130" font-family="Arial, sans-serif" font-size="16" font-weight="bold" fill="#333">Categories</text>
  
  <rect x="0" y="150" width="280" height="40" fill="#e3f2fd"/>
  <text x="20" y="175" font-family="Arial, sans-serif" font-size="14" fill="#1976d2">▼ Statements (45)</text>
  
  <rect x="20" y="190" width="240" height="30" fill="white"/>
  <text x="40" y="208" font-family="Arial, sans-serif" font-size="13" fill="#666">• Title statements</text>
  
  <rect x="20" y="220" width="240" height="30" fill="white"/>
  <text x="40" y="238" font-family="Arial, sans-serif" font-size="13" fill="#666">• Edition statements</text>
  
  <rect x="20" y="250" width="240" height="30" fill="white"/>
  <text x="40" y="268" font-family="Arial, sans-serif" font-size="13" fill="#666">• Publication statements</text>
  
  <rect x="0" y="290" width="280" height="40" fill="white"/>
  <text x="20" y="315" font-family="Arial, sans-serif" font-size="14" fill="#333">▶ Notes (38)</text>
  
  <rect x="0" y="330" width="280" height="40" fill="white"/>
  <text x="20" y="355" font-family="Arial, sans-serif" font-size="14" fill="#333">▶ Attributes (52)</text>
  
  <rect x="0" y="370" width="280" height="40" fill="white"/>
  <text x="20" y="395" font-family="Arial, sans-serif" font-size="14" fill="#333">▶ Relationships (50)</text>
  
  <!-- Main Content Area -->
  <rect x="280" y="100" width="920" height="800" fill="white"/>
  
  <!-- Page Title -->
  <text x="320" y="140" font-family="Arial, sans-serif" font-size="28" font-weight="bold" fill="#333">ISBD Elements</text>
  <text x="320" y="170" font-family="Arial, sans-serif" font-size="16" fill="#666">Core ISBD elements with domain and range constraints for RDF applications</text>
  
  <!-- Search and Filter Bar -->
  <rect x="320" y="190" width="840" height="50" fill="#f5f5f5" rx="4"/>
  <rect x="330" y="200" width="400" height="30" fill="white" rx="4" stroke="#ccc"/>
  <text x="340" y="220" font-family="Arial, sans-serif" font-size="14" fill="#999">Search elements...</text>
  
  <rect x="750" y="200" width="130" height="30" fill="white" rx="4" stroke="#ccc"/>
  <text x="760" y="220" font-family="Arial, sans-serif" font-size="14" fill="#666">Category: All ▼</text>
  
  <rect x="890" y="200" width="130" height="30" fill="white" rx="4" stroke="#ccc"/>
  <text x="900" y="220" font-family="Arial, sans-serif" font-size="14" fill="#666">Sort: Label ▼</text>
  
  <rect x="1030" y="200" width="120" height="30" fill="#1976d2" rx="4"/>
  <text x="1055" y="220" font-family="Arial, sans-serif" font-size="14" fill="white">Export CSV</text>
  
  <!-- Elements Table -->
  <rect x="320" y="260" width="840" height="40" fill="#f5f5f5"/>
  <text x="340" y="285" font-family="Arial, sans-serif" font-size="14" font-weight="bold" fill="#333">Label</text>
  <text x="540" y="285" font-family="Arial, sans-serif" font-size="14" font-weight="bold" fill="#333">Definition</text>
  <text x="900" y="285" font-family="Arial, sans-serif" font-size="14" font-weight="bold" fill="#333">Domain</text>
  <text x="1020" y="285" font-family="Arial, sans-serif" font-size="14" font-weight="bold" fill="#333">Range</text>
  
  <!-- Element Row 1 -->
  <rect x="320" y="300" width="840" height="60" fill="white" stroke="#e0e0e0"/>
  <text x="340" y="325" font-family="Arial, sans-serif" font-size="14" fill="#1976d2" text-decoration="underline">has title proper</text>
  <text x="340" y="345" font-family="Arial, sans-serif" font-size="12" fill="#666">P1001</text>
  <text x="540" y="325" font-family="Arial, sans-serif" font-size="13" fill="#333">Relates a resource to a title</text>
  <text x="540" y="345" font-family="Arial, sans-serif" font-size="13" fill="#333">that is the chief title...</text>
  <text x="900" y="335" font-family="Arial, sans-serif" font-size="13" fill="#666">Resource</text>
  <text x="1020" y="335" font-family="Arial, sans-serif" font-size="13" fill="#666">Literal</text>
  
  <!-- Element Row 2 -->
  <rect x="320" y="360" width="840" height="60" fill="#fafafa" stroke="#e0e0e0"/>
  <text x="340" y="385" font-family="Arial, sans-serif" font-size="14" fill="#1976d2" text-decoration="underline">has parallel title proper</text>
  <text x="340" y="405" font-family="Arial, sans-serif" font-size="12" fill="#666">P1002</text>
  <text x="540" y="385" font-family="Arial, sans-serif" font-size="13" fill="#333">Relates a resource to a title</text>
  <text x="540" y="405" font-family="Arial, sans-serif" font-size="13" fill="#333">proper in another language...</text>
  <text x="900" y="395" font-family="Arial, sans-serif" font-size="13" fill="#666">Resource</text>
  <text x="1020" y="395" font-family="Arial, sans-serif" font-size="13" fill="#666">Literal</text>
  
  <!-- Element Row 3 -->
  <rect x="320" y="420" width="840" height="60" fill="white" stroke="#e0e0e0"/>
  <text x="340" y="445" font-family="Arial, sans-serif" font-size="14" fill="#1976d2" text-decoration="underline">has other title information</text>
  <text x="340" y="465" font-family="Arial, sans-serif" font-size="12" fill="#666">P1003</text>
  <text x="540" y="445" font-family="Arial, sans-serif" font-size="13" fill="#333">Relates a resource to a title</text>
  <text x="540" y="455" font-family="Arial, sans-serif" font-size="13" fill="#333">that appears in conjunction...</text>
  <text x="900" y="455" font-family="Arial, sans-serif" font-size="13" fill="#666">Resource</text>
  <text x="1020" y="455" font-family="Arial, sans-serif" font-size="13" fill="#666">Literal</text>
  
  <!-- More rows indicated -->
  <text x="720" y="550" font-family="Arial, sans-serif" font-size="14" fill="#666">... showing 3 of 45 statement elements</text>
  
  <!-- Pagination -->
  <rect x="320" y="820" width="840" height="60" fill="#f5f5f5"/>
  <text x="340" y="855" font-family="Arial, sans-serif" font-size="14" fill="#666">Showing 1-25 of 185 elements</text>
  <rect x="1000" y="835" width="40" height="30" rx="4" fill="white" stroke="#ccc"/>
  <text x="1015" y="855" font-family="Arial, sans-serif" font-size="14" fill="#666">1</text>
  <rect x="1050" y="835" width="40" height="30" rx="4" fill="#1976d2"/>
  <text x="1065" y="855" font-family="Arial, sans-serif" font-size="14" fill="white">2</text>
  <rect x="1100" y="835" width="40" height="30" rx="4" fill="white" stroke="#ccc"/>
  <text x="1115" y="855" font-family="Arial, sans-serif" font-size="14" fill="#666">3</text>
</svg>